{
  "asset": {
    "generator": "Khronos glTF Blender I/O v3.3.32",
    "version": "2.0"
  },
  "scene": 0,
  "scenes": [
    {
      "name": "Scene",
      "nodes": [
        0
      ]
    }
  ],
  "nodes": [
    {
      "mesh": 0,
      "name": "wicker_basket_01"
    }
  ],
  "materials": [
    {
      "doubleSided": true,
      "name": "wicker_basket_01",
      "normalTexture": {
        "index": 0
      },
      "pbrMetallicRoughness": {
        "baseColorTexture": {
          "index": 1
        },
        "metallicRoughnessTexture": {
          "index": 2
        }
      }
    }
  ],
  "meshes": [
    {
      "name": "Vert.001",
      "primitives": [
        {
          "attributes": {
            "POSITION": 0,
            "NORMAL": 1,
            "TEXCOORD_0": 2
          },
          "indices": 3,
          "material": 0
        }
      ]
    }
  ],
  "textures": [
    {
      "sampler": 0,
      "source": 0
    },
    {
      "sampler": 0,
      "source": 1
    },
    {
      "sampler": 0,
      "source": 2
    }
  ],
  "images": [
    {
      "mimeType": "image/jpeg",
      "name": "wicker_basket_01_nor_gl",
      "uri": "textures/wicker_basket_01_nor_gl_1k.jpg"
    },
    {
      "mimeType": "image/jpeg",
      "name": "wicker_basket_01_diff",
      "uri": "textures/wicker_basket_01_diff_1k.jpg"
    },
    {
      "mimeType": "image/jpeg",
      "name": "wicker_basket_01_rough",
      "uri": "textures/wicker_basket_01_arm_1k.jpg"
    }
  ],
  "accessors": [
    {
      "bufferView": 0,
      "componentType": 5126,
      "count": 15352,
      "max": [
        0.19134199619293213,
        0.11650627851486206,
        0.14707215130329132
      ],
      "min": [
        -0.19188226759433746,
        -0.0009166551753878593,
        -0.14794304966926575
      ],
      "type": "VEC3"
    },
    {
      "bufferView": 1,
      "componentType": 5126,
      "count": 15352,
      "type": "VEC3"
    },
    {
      "bufferView": 2,
      "componentType": 5126,
      "count": 15352,
      "type": "VEC2"
    },
    {
      "bufferView": 3,
      "componentType": 5123,
      "count": 66828,
      "type": "SCALAR"
    }
  ],
  "bufferViews": [
    {
      "buffer": 0,
      "byteLength": 184224,
      "byteOffset": 0,
      "target": 34962
    },
    {
      "buffer": 0,
      "byteLength": 184224,
      "byteOffset": 184224,
      "target": 34962
    },
    {
      "buffer": 0,
      "byteLength": 122816,
      "byteOffset": 368448,
      "target": 34962
    },
    {
      "buffer": 0,
      "byteLength": 133656,
      "byteOffset": 491264,
      "target": 34963
    }
  ],
  "samplers": [
    {
      "magFilter": 9729,
      "minFilter": 9987
    }
  ],
  "buffers": [
    {
      "byteLength": 624920,
      "uri": "wicker_basket_01.bin"
    }
  ]
}